<?xml version="1.0" encoding="UTF-8"?>
<svg id="Layer_2" data-name="Layer 2" xmlns="http://www.w3.org/2000/svg" viewBox="0 0 223.09 165.57">
  <defs>
    <style>
      .cls-1 {
        fill: #fff;
      }

      .cls-1, .cls-2 {
        stroke-width: 0px;
      }

      .cls-2 {
        fill: #e9a354;
      }
    </style>
  </defs>
  <g id="Layer_1-2" data-name="Layer 1">
    <g>
      <g>
        <path class="cls-2" d="M111.1,85.45l-4.87-79.76c-.15-2.98,2.15-5.52,5.13-5.67,3.17-.18,5.85,2.5,5.67,5.67,0,0-4.87,79.76-4.87,79.76-.01.29-.26.51-.55.5-.27-.01-.49-.23-.5-.5h0Z"/>
        <g>
          <g>
            <path class="cls-2" d="M107.57,99.58L78.9,11.09c-.92-2.84.64-5.89,3.49-6.81,3.02-.99,6.3.9,6.95,4.01,0,0,19.26,91.02,19.26,91.02.06.28-.12.56-.4.63-.27.06-.53-.1-.61-.35h0Z"/>
            <path class="cls-2" d="M103.56,100.58L53.68,23.44c-1.62-2.51-.9-5.86,1.6-7.48,2.66-1.74,6.32-.76,7.75,2.08,0,0,41.43,82.02,41.43,82.02.13.26.03.58-.23.71-.24.12-.54.04-.68-.18h0Z"/>
            <path class="cls-2" d="M100.48,103.27L32.52,41.89c-2.22-2-2.39-5.42-.39-7.64,2.12-2.37,5.9-2.37,8.02,0,0,0,61.06,68.27,61.06,68.27.2.22.18.55-.04.74-.2.18-.51.18-.71,0h0Z"/>
            <path class="cls-2" d="M98.06,106.62L16.86,65.2c-2.66-1.36-3.71-4.62-2.35-7.28,1.43-2.84,5.09-3.82,7.75-2.08,0,0,76.32,49.86,76.32,49.86.24.16.31.48.16.73-.15.23-.44.3-.68.18h0Z"/>
            <path class="cls-2" d="M96.46,110.45L7.76,91.76c-2.92-.63-4.78-3.5-4.15-6.42.65-3.11,3.93-5,6.95-4.01,0,0,86.17,28.11,86.17,28.11.28.09.43.39.34.66-.08.26-.35.41-.61.35h0Z"/>
            <path class="cls-2" d="M85.44,114.9l-79.59,4.87c-2.98.15-5.52-2.15-5.67-5.13-.18-3.17,2.5-5.85,5.67-5.67,0,0,79.59,4.87,79.59,4.87.29.01.51.26.5.55-.01.27-.23.49-.5.5h0Z"/>
          </g>
          <g>
            <path class="cls-2" d="M115.68,99.58l28.68-88.49c.92-2.84-.64-5.89-3.49-6.81-3.02-.99-6.3.9-6.95,4.01,0,0-19.26,91.02-19.26,91.02-.06.28.12.56.4.63.27.06.53-.1.61-.35h0Z"/>
            <path class="cls-2" d="M119.7,100.58l49.87-77.15c1.62-2.51.9-5.86-1.6-7.48-2.66-1.74-6.32-.76-7.75,2.08,0,0-41.43,82.02-41.43,82.02-.13.26-.03.58.23.71.24.12.54.04.68-.18h0Z"/>
            <path class="cls-2" d="M122.78,103.27l67.95-61.37c2.22-2,2.39-5.42.39-7.64-2.12-2.37-5.9-2.37-8.02,0,0,0-61.06,68.27-61.06,68.27-.2.22-.18.55.04.74.2.18.51.18.71,0h0Z"/>
            <path class="cls-2" d="M125.2,106.62l81.2-41.42c2.66-1.36,3.71-4.62,2.35-7.28-1.43-2.84-5.09-3.82-7.75-2.08,0,0-76.32,49.86-76.32,49.86-.24.16-.31.48-.16.73.15.23.44.3.68.18h0Z"/>
            <path class="cls-2" d="M126.8,110.45l88.7-18.7c2.92-.63,4.78-3.5,4.15-6.42-.65-3.11-3.93-5-6.95-4.01,0,0-86.17,28.11-86.17,28.11-.28.09-.43.39-.34.66.08.26.35.41.61.35h0Z"/>
            <path class="cls-2" d="M137.82,114.9l79.59,4.87c2.98.15,5.52-2.15,5.67-5.13.18-3.17-2.5-5.85-5.67-5.67,0,0-79.59,4.87-79.59,4.87-.29.01-.51.26-.5.55.01.27.23.49.5.5h0Z"/>
          </g>
        </g>
      </g>
      <g>
        <path class="cls-1" d="M8.16,165.57c-2.59,0-4.6-.63-6.02-1.92-1.43-1.29-2.14-3.11-2.14-5.47v-.57c0-.36.14-.65.42-.89.28-.24.59-.32.95-.26l2.71.52c.59.14.89.5.89,1.07.1,2.4,1.15,3.6,3.15,3.62,1.01,0,1.78-.3,2.34-.87.55-.57.83-1.35.83-2.3,0-.89-.42-1.8-1.25-2.71s-2.18-2.06-4.04-3.47c-1.37-1.01-2.54-2.22-3.51-3.6-.97-1.39-1.6-2.79-1.88-4.2s-.26-2.71.06-3.92c.32-1.21,1.13-2.2,2.44-2.97s3.01-1.17,5.13-1.17c2.57,0,4.56.63,5.96,1.92,1.41,1.29,2.1,3.09,2.1,5.43v.04c0,.3-.1.55-.32.77s-.48.34-.77.34h-2.71c-.3,0-.55-.12-.79-.36s-.36-.5-.36-.79v-.34c0-1.05-.32-1.84-.93-2.38-.61-.53-1.35-.81-2.2-.81-.75,0-1.47.3-2.14.89-.67.59-1.01,1.37-1.01,2.3,0,.87.44,1.74,1.31,2.63s2.3,2.04,4.26,3.47c2.2,1.64,3.7,3.07,4.54,4.26.83,1.19,1.25,2.61,1.25,4.26,0,2.38-.69,4.2-2.08,5.47-1.39,1.27-3.41,1.9-6.06,1.9l-.12.12Z"/>
        <path class="cls-1" d="M29.86,136.83c2.3,0,4.28.79,5.94,2.36,1.66,1.56,2.52,3.49,2.57,5.76.08,2.36-.69,4.38-2.34,6.06-1.64,1.68-3.64,2.52-6,2.52h-2.87c-.38,0-.69.14-.97.42s-.42.59-.42.97v8.6c0,.5-.18.91-.53,1.25-.36.34-.77.5-1.27.5h-1.43c-.5,0-.91-.18-1.27-.52-.36-.34-.54-.75-.54-1.25v-24.92c0-.5.18-.91.54-1.25.36-.34.77-.52,1.27-.52h7.31v.02ZM29.96,148.58c.89,0,1.66-.3,2.32-.87.65-.57,1.03-1.29,1.11-2.14.1-1.03-.18-1.92-.85-2.65-.67-.73-1.51-1.11-2.48-1.11h-3.21c-.3,0-.55.1-.75.3s-.3.46-.3.75v4.65c0,.3.1.55.3.75s.46.3.75.3h3.09l.02.02Z"/>
        <path class="cls-1" d="M52.48,161.63c-.1-.44-.34-.79-.69-1.07s-.75-.42-1.19-.42h-4.1c-.44,0-.83.14-1.21.42s-.61.63-.71,1.07l-.57,2.14c-.1.42-.34.77-.71,1.07-.38.3-.77.44-1.21.44h-1.82c-.44,0-.77-.16-1.01-.46-.24-.3-.3-.65-.2-1.07l6.65-25.27c.1-.44.34-.79.71-1.07s.77-.42,1.21-.42h1.86c.44,0,.85.14,1.23.42s.61.63.71,1.05l6.62,25.27c.1.42.04.77-.18,1.07-.22.3-.53.44-.95.44h-1.88c-.44,0-.83-.16-1.19-.46-.36-.3-.59-.65-.73-1.07l-.63-2.08ZM49.23,155.21c.44,0,.75-.16.97-.46.22-.3.28-.65.18-1.07l-1.5-5.76c-.1-.42-.22-.61-.38-.61s-.28.2-.38.59l-1.54,5.76c-.1.42-.04.77.2,1.07.24.3.57.44,1.01.44l1.45.04Z"/>
        <path class="cls-1" d="M76.26,165.29c-.61,0-1.03-.28-1.25-.85l-3.45-9.78c-.22-.69-.71-1.05-1.49-1.05h-1.01c-.44,0-.81.14-1.13.44-.32.3-.48.65-.48,1.09v8.83c0,.36-.12.65-.38.91-.26.26-.57.38-.95.38h-2.3c-.38,0-.69-.14-.95-.4-.26-.26-.38-.57-.38-.93v-25.75c0-.36.14-.67.4-.93s.57-.4.95-.4h7.7c2.24,0,4.2.75,5.86,2.28,1.66,1.52,2.55,3.39,2.65,5.6.16,2.71-.81,4.99-2.93,6.83-.53.46-.69,1.05-.48,1.78l3.8,10.14c.16.44.12.83-.14,1.19-.26.36-.61.53-1.07.53h-3.01v.08ZM68.79,141.92c-.36,0-.65.12-.89.36-.24.24-.36.53-.36.89v4.26c0,.34.12.61.36.85s.53.36.87.36h3.01c.97,0,1.8-.36,2.48-1.09.67-.73.95-1.6.85-2.61-.08-.87-.46-1.58-1.13-2.16-.67-.57-1.45-.85-2.34-.85h-2.89.04Z"/>
        <path class="cls-1" d="M99.34,165.29c-.44,0-.87-.14-1.33-.4s-.79-.57-1.01-.95c-1.68-2.79-2.99-4.87-3.94-6.24s-1.54-2.1-1.8-2.18c-.26-.08-.48-.06-.65.08-.52.75-.77,1.64-.77,2.67v5.39c0,.44-.14.79-.44,1.09s-.65.44-1.09.44h-1.82c-.44,0-.81-.16-1.13-.46-.32-.3-.48-.67-.48-1.11v-25.15c0-.44.16-.79.48-1.09.32-.3.69-.44,1.13-.44h1.82c.44,0,.81.14,1.11.44.3.3.46.65.46,1.07v7.67c0,.44.08.67.26.71s.38-.12.59-.46l5.35-8.16c.24-.36.59-.65,1.05-.91.46-.26.91-.38,1.35-.38h2.83c.44,0,.73.12.87.38.14.26.08.55-.18.91l-6.77,10.3c-.22.36-.34.79-.36,1.29-.02.5.08.93.3,1.31l7.67,12.73c.22.36.26.67.12.95s-.42.42-.85.42l-2.75.08Z"/>
        <path class="cls-1" d="M112.76,158.96c0,.36.14.65.4.91s.55.38.89.38h7.68c.38,0,.69.12.95.38.26.26.38.57.38.95v2.3c0,.36-.12.67-.38.95-.26.28-.57.42-.95.42h-12.62c-.36,0-.67-.14-.95-.42s-.42-.59-.42-.95v-25.71c0-.36.14-.67.42-.95.28-.28.59-.42.95-.42h2.3c.38,0,.69.14.95.42.26.28.4.59.4.95v20.8Z"/>
        <path class="cls-1" d="M133.72,142c-.44,0-.79.14-1.09.44-.3.3-.44.65-.44,1.09v3.6c0,.44.16.79.46,1.09.3.3.67.44,1.11.44h3.76c.44,0,.81.14,1.11.44.3.3.46.65.46,1.09v1.86c0,.44-.14.79-.44,1.09-.3.3-.65.44-1.09.44h-3.76c-.44,0-.79.14-1.09.44-.3.3-.44.65-.44,1.09v3.6c0,.44.16.81.46,1.13s.67.48,1.11.48h7.17c.44,0,.81.14,1.11.44.3.3.46.65.46,1.09v1.82c0,.44-.14.81-.44,1.13s-.65.48-1.09.48h-12.12c-.44,0-.79-.16-1.09-.48s-.44-.69-.44-1.13v-25.15c0-.44.16-.79.46-1.09.3-.3.67-.44,1.11-.44h12.12c.44,0,.81.14,1.11.44.3.3.46.65.46,1.07v1.88c0,.44-.14.79-.44,1.09s-.65.44-1.09.44l-7.41.12Z"/>
        <path class="cls-1" d="M168.72,165.57c-2.59,0-4.59-.63-6.02-1.92-1.43-1.29-2.14-3.11-2.14-5.47v-.57c0-.36.14-.65.42-.89.28-.24.59-.32.95-.26l2.71.52c.59.14.89.5.89,1.07.1,2.4,1.15,3.6,3.15,3.62,1.01,0,1.78-.3,2.34-.87.55-.57.83-1.35.83-2.3,0-.89-.42-1.8-1.25-2.71s-2.18-2.06-4.04-3.47c-1.37-1.01-2.54-2.22-3.51-3.6-.97-1.39-1.6-2.79-1.88-4.2s-.26-2.71.06-3.92c.32-1.21,1.13-2.2,2.44-2.97,1.31-.77,3.01-1.17,5.13-1.17,2.58,0,4.56.63,5.96,1.92,1.41,1.29,2.1,3.09,2.1,5.43v.04c0,.3-.1.55-.32.77-.22.22-.47.34-.77.34h-2.71c-.3,0-.55-.12-.79-.36-.24-.24-.36-.5-.36-.79v-.34c0-1.05-.32-1.84-.93-2.38-.61-.53-1.35-.81-2.2-.81-.75,0-1.47.3-2.14.89-.67.59-1.01,1.37-1.01,2.3,0,.87.44,1.74,1.31,2.63s2.3,2.04,4.26,3.47c2.2,1.64,3.7,3.07,4.54,4.26.83,1.19,1.25,2.61,1.25,4.26,0,2.38-.69,4.2-2.08,5.47s-3.41,1.9-6.06,1.9l-.12.12Z"/>
        <path class="cls-1" d="M198.3,136.73c.34,0,.63.12.87.36.24.24.36.52.36.85v18.32c0,2.48-.89,4.63-2.69,6.48-1.84,1.78-4,2.67-6.48,2.67s-4.65-.89-6.44-2.67c-1.78-1.78-2.67-3.94-2.67-6.5v-18.32c0-.34.12-.63.36-.87s.54-.36.87-.36h2.52c.36,0,.65.12.89.36.24.24.36.52.36.85v18.32c0,1.17.4,2.16,1.21,2.97.93.95,2.02,1.35,3.29,1.21,1.11-.08,2.04-.53,2.79-1.37.75-.83,1.13-1.8,1.13-2.91v-18.24c0-.34.12-.63.36-.87.24-.24.52-.36.83-.36h2.55l-.1.08Z"/>
        <path class="cls-1" d="M222.33,163.79c0,.44-.14.79-.44,1.09-.3.3-.65.44-1.09.44h-2.32c-.44,0-.87-.14-1.31-.42s-.75-.61-.95-.99l-6.56-13.9c-.1-.24-.2-.4-.32-.48-.12-.08-.2-.06-.26.06-.06.12-.1.3-.1.55v13.63c0,.44-.14.79-.44,1.09-.3.3-.65.44-1.09.44h-1.86c-.44,0-.79-.16-1.09-.46-.3-.3-.44-.67-.44-1.11v-25.15c0-.44.16-.81.46-1.11.3-.3.67-.46,1.11-.46h1.86c.44,0,.87.14,1.31.42s.75.59.95.97l7.05,14.97c.1.24.22.4.34.48.12.08.2.06.26-.06.06-.12.08-.32.08-.57v-14.7c0-.44.16-.81.46-1.11.3-.3.67-.46,1.11-.46h1.86c.44,0,.81.16,1.11.46.3.3.46.67.46,1.11l-.16,25.27Z"/>
      </g>
    </g>
  </g>
</svg>